<svg aria-hidden="true" style="position: absolute; width: 0; height: 0; overflow: hidden;" version="1.1"
    xmlns="http://www.w3.org/2000/svg" xmlns:xlink="http://www.w3.org/1999/xlink">
    <defs>
        <symbol id="icon-facebook" viewBox="0 0 32 32">
            <path fill="#fcf9f9" style="fill: var(--color1, #fcf9f9)" opacity="0.8"
                d="M19.52 4.64h0.96v3.6h-1.2c-0.48 0-0.96 0-1.2 0.24s-0.24 0.48-0.24 1.040v1.28h2.64v3.040h-2.64v13.2h-4.080v-13.28h-2.16v-3.040h2.16v-1.040c0-1.76 0.24-3.040 0.72-3.6 0.72-1.040 2.16-1.52 4.32-1.52 0.24 0.080 0.48 0.080 0.72 0.080z">
            </path>
        </symbol>
        <symbol id="icon-instagram" viewBox="0 0 32 32">
            <path fill="#fcf9f9" style="fill: var(--color1, #fcf9f9)" opacity="0.8"
                d="M28.718 10.755c-0.016-1.134-0.233-2.212-0.617-3.207l0.021 0.063c-0.682-1.722-2.021-3.059-3.7-3.722l-0.044-0.015c-0.921-0.356-1.985-0.573-3.097-0.596l-0.010-0c-1.367-0.061-1.801-0.078-5.271-0.078-3.472 0-3.917 0-5.274 0.078-1.063 0.023-2.113 0.223-3.106 0.597-1.724 0.678-3.064 2.015-3.73 3.693l-0.015 0.044c-0.357 0.918-0.574 1.981-0.596 3.091l-0 0.009c-0.061 1.367-0.080 1.8-0.080 5.265 0 3.466 0 3.909 0.080 5.265 0.023 1.121 0.24 2.184 0.618 3.168l-0.022-0.064c0.682 1.721 2.021 3.058 3.7 3.721l0.044 0.015c0.917 0.369 1.98 0.6 3.091 0.637l0.015 0c1.369 0.062 1.802 0.080 5.274 0.080 3.471 0 3.917 0 5.274-0.080 1.122-0.023 2.187-0.239 3.172-0.616l-0.064 0.022c1.722-0.68 3.061-2.016 3.727-3.693l0.016-0.044c0.374-0.993 0.574-2.040 0.595-3.103 0.062-1.366 0.080-1.799 0.080-5.266-0.003-3.465-0.003-3.905-0.082-5.264zM15.989 22.531c-0.002 0-0.004 0-0.006 0-3.625 0-6.563-2.937-6.566-6.561v-0c0.002-3.624 2.94-6.561 6.565-6.561 0.002 0 0.005 0 0.007 0h-0c3.629 0 6.571 2.937 6.571 6.56-0.003 3.625-2.942 6.562-6.567 6.562-0.002 0-0.003 0-0.005 0h0zM22.823 10.696c-0.845 0-1.53-0.685-1.53-1.53s0.685-1.53 1.53-1.53v0c0.012-0 0.027-0.001 0.042-0.001 0.845 0 1.53 0.685 1.53 1.53s-0.685 1.53-1.53 1.53c-0.015 0-0.029-0-0.044-0.001l0.002 0z">
            </path>
            <path fill="#fcf9f9" style="fill: var(--color1, #fcf9f9)" opacity="0.8"
                d="M15.992 19.976c2.211 0 4.004-1.793 4.004-4.004s-1.793-4.004-4.004-4.004v0c-2.211 0-4.004 1.793-4.004 4.004s1.793 4.004 4.004 4.004v0z">
            </path>
        </symbol>
        <symbol id="icon-youtube" viewBox="0 0 32 32">
            <path fill="#fcf9f9" style="fill: var(--color1, #fcf9f9)" opacity="0.8"
                d="M24.24 6c-1.36-0.080-4.16-0.16-8.4-0.16h-0.56c-4.080 0-6.8 0.080-8.16 0.24-1.84 0.16-3.12 0.64-3.84 1.28-0.64 0.56-1.12 1.6-1.28 2.96-0.080 0.88-0.16 2.72-0.16 5.52v0.4c0 2.64 0.080 4.48 0.24 5.36 0.24 1.28 0.64 2.24 1.44 2.8 0.8 0.64 2.16 1.040 4.080 1.2 1.36 0.080 4.16 0.16 8.4 0.16h0.56c4.080 0 6.8-0.080 8.16-0.24 1.84-0.16 3.12-0.64 3.84-1.28 0.64-0.56 1.12-1.6 1.28-2.96 0.080-0.88 0.16-2.72 0.16-5.52v-0.4c0-2.64-0.080-4.48-0.24-5.36-0.24-1.28-0.64-2.24-1.44-2.8-0.8-0.64-2.16-1.040-4.080-1.2zM21.12 15.84l-8.8 5.28v-10.56l8.8 5.28z">
            </path>
        </symbol>
        <symbol id="icon-burger-menu" viewBox="0 0 48 32">
            <path fill="none" stroke="#ecd979" style="stroke: var(--color1, #ecd979)" stroke-linejoin="miter"
                stroke-linecap="round" stroke-miterlimit="4" stroke-width="2.6667"
                d="M8.639 5.455h38.028M8.639 24.848h38.028M20.116 15.152h26.551"></path>
        </symbol>
        <symbol id="icon-close-burger-menu" viewBox="0 0 32 32">
            <path stroke="#1C2225" stroke-linejoin="round" stroke-linecap="round" stroke-miterlimit="4"
                stroke-width="1.7778" d="M24 8l-16 16M8 8l16 16"></path>
        </symbol>
        <symbol id="icon-burger-menu-img-bottom" viewBox="0 0 35 32">
            <path
                d="M35.79 32.965h-1.352v-1.373h1.352v1.373zM26.327 32.965h-1.352v-1.373h1.352v1.373zM24.975 32.965h-1.352v-1.373h1.352v1.373zM23.623 32.965h-1.352v-1.373h1.352v1.373zM19.567 32.965h-1.352v-1.373h1.352v1.373zM16.864 32.965h-1.352v-1.373h1.352v1.373zM12.808 32.965h-1.352v-1.373h1.352v1.373zM11.456 32.965h-1.352v-1.374h1.352v1.374z">
            </path>
            <path
                d="M10.104 32.965h-1.352v-1.373h1.352v1.373zM0.64 32.965h-1.352v-1.373h1.352v1.373zM24.975 31.591h-1.352v-1.374h1.352v1.374zM23.623 31.591h-1.352v-1.374h1.352v1.374zM22.271 31.591h-1.352v-1.374h1.352v1.374zM14.16 31.591h-1.352v-1.374h1.352v1.374zM12.808 31.591h-1.352v-1.374h1.352v1.374zM11.456 31.591h-1.352v-1.374h1.352v1.374zM31.735 30.218h-1.352v-1.373h1.352v1.373zM19.567 30.218h-1.352v-1.373h1.352v1.373zM16.864 30.218h-1.352v-1.374h1.352v1.374zM4.696 30.218h-1.352v-1.374h1.352v1.374zM31.735 28.844h-1.352v-1.373h1.352v1.373zM30.383 28.844h-1.352v-1.373h1.352v1.373zM20.919 28.844h-1.352v-1.373h1.352v1.373zM19.567 28.844h-1.352v-1.373h1.352v1.373z">
            </path>
            <path
                d="M16.864 28.844h-1.352v-1.373h1.352v1.373zM15.512 28.844h-1.352v-1.373h1.352v1.373zM6.048 28.844h-1.352v-1.373h1.352v1.373z">
            </path>
            <path
                d="M4.696 28.844h-1.352v-1.373h1.352v1.373zM31.735 27.471h-1.352v-1.374h1.352v1.374zM30.383 27.471h-1.352v-1.374h1.352v1.374z">
            </path>
            <path d="M29.031 27.471h-1.352v-1.374h1.352v1.374zM22.271 27.471h-1.352v-1.374h1.352v1.374z"></path>
            <path
                d="M20.919 27.471h-1.352v-1.374h1.352v1.374zM15.512 27.471h-1.352v-1.374h1.352v1.374zM14.16 27.471h-1.352v-1.374h1.352v1.374zM7.4 27.471h-1.352v-1.374h1.352v1.374zM6.048 27.471h-1.352v-1.374h1.352v1.374z">
            </path>
            <path d="M4.696 27.471h-1.352v-1.374h1.352v1.374zM30.383 26.097h-1.352v-1.373h1.352v1.373z"></path>
            <path
                d="M29.031 26.097h-1.352v-1.373h1.352v1.373zM23.623 26.097h-1.352v-1.373h1.352v1.373zM22.271 26.097h-1.352v-1.373h1.352v1.373zM14.16 26.097h-1.352v-1.374h1.352v1.374zM12.808 26.097h-1.352v-1.374h1.352v1.374zM7.4 26.097h-1.352v-1.374h1.352v1.374zM6.048 26.097h-1.352v-1.374h1.352v1.374zM35.79 24.724h-1.352v-1.373h1.352v1.373zM34.438 24.724h-1.352v-1.373h1.352v1.373z">
            </path>
            <path
                d="M33.087 24.724h-1.352v-1.373h1.352v1.373zM29.031 24.724h-1.352v-1.373h1.352v1.373zM24.975 24.724h-1.352v-1.373h1.352v1.373zM23.623 24.724h-1.352v-1.373h1.352v1.373zM12.808 24.724h-1.352v-1.373h1.352v1.373zM11.456 24.724h-1.352v-1.373h1.352v1.373zM7.4 24.724h-1.352v-1.373h1.352v1.373zM3.344 24.724h-1.352v-1.373h1.352v1.373zM1.992 24.724h-1.352v-1.373h1.352v1.373zM0.64 24.724h-1.352v-1.373h1.352v1.373zM34.438 23.35h-1.352v-1.374h1.352v1.374z">
            </path>
            <path
                d="M33.087 23.35h-1.352v-1.374h1.352v1.374zM31.735 23.35h-1.352v-1.374h1.352v1.374zM26.327 23.35h-1.352v-1.374h1.352v1.374zM24.975 23.35h-1.352v-1.374h1.352v1.374zM11.456 23.35h-1.352v-1.374h1.352v1.374z">
            </path>
            <path d="M10.104 23.35h-1.352v-1.374h1.352v1.374zM4.696 23.35h-1.352v-1.374h1.352v1.374z"></path>
            <path
                d="M3.344 23.35h-1.352v-1.374h1.352v1.374zM1.992 23.35h-1.352v-1.374h1.352v1.374zM33.087 21.977h-1.352v-1.374h1.352v1.374zM31.735 21.977h-1.352v-1.374h1.352v1.374zM30.383 21.977h-1.352v-1.374h1.352v1.374zM27.679 21.977h-1.352v-1.374h1.352v1.374z">
            </path>
            <path
                d="M26.327 21.977h-1.352v-1.374h1.352v1.374zM18.216 21.977h-1.352v-1.374h1.352v1.374zM10.104 21.977h-1.352v-1.374h1.352v1.374zM8.752 21.977h-1.352v-1.374h1.352v1.374zM6.048 21.977h-1.352v-1.374h1.352v1.374z">
            </path>
            <path d="M4.696 21.977h-1.352v-1.374h1.352v1.374z"></path>
            <path d="M3.344 21.977h-1.352v-1.374h1.352v1.374zM19.567 20.603h-1.352v-1.373h1.352v1.373z"></path>
            <path d="M18.216 20.603h-1.352v-1.373h1.352v1.373z"></path>
            <path
                d="M16.864 20.603h-1.352v-1.373h1.352v1.373zM33.087 19.23h-1.352v-1.374h1.352v1.374zM31.735 19.23h-1.352v-1.374h1.352v1.374zM30.383 19.23h-1.352v-1.374h1.352v1.374zM27.679 19.23h-1.352v-1.374h1.352v1.374z">
            </path>
            <path
                d="M26.327 19.23h-1.352v-1.374h1.352v1.374zM18.216 19.23h-1.352v-1.374h1.352v1.374zM10.104 19.23h-1.352v-1.374h1.352v1.374zM8.752 19.23h-1.352v-1.374h1.352v1.374zM6.048 19.23h-1.352v-1.374h1.352v1.374z">
            </path>
            <path d="M4.696 19.23h-1.352v-1.374h1.352v1.374z"></path>
            <path d="M3.344 19.23h-1.352v-1.374h1.352v1.374zM34.438 17.856h-1.352v-1.374h1.352v1.374z"></path>
            <path
                d="M33.087 17.856h-1.352v-1.374h1.352v1.374zM31.735 17.856h-1.352v-1.374h1.352v1.374zM26.327 17.856h-1.352v-1.374h1.352v1.374zM24.975 17.856h-1.352v-1.374h1.352v1.374zM11.456 17.856h-1.352v-1.374h1.352v1.374z">
            </path>
            <path d="M10.104 17.856h-1.352v-1.374h1.352v1.374zM4.696 17.856h-1.352v-1.374h1.352v1.374z"></path>
            <path
                d="M3.344 17.856h-1.352v-1.374h1.352v1.374zM1.992 17.856h-1.352v-1.374h1.352v1.374zM35.79 16.482h-1.352v-1.374h1.352v1.374zM34.438 16.482h-1.352v-1.374h1.352v1.374z">
            </path>
            <path
                d="M33.087 16.482h-1.352v-1.374h1.352v1.374zM29.031 16.482h-1.352v-1.374h1.352v1.374zM24.975 16.482h-1.352v-1.374h1.352v1.374zM23.623 16.482h-1.352v-1.374h1.352v1.374zM12.808 16.482h-1.352v-1.373h1.352v1.373zM11.456 16.482h-1.352v-1.374h1.352v1.374zM7.4 16.482h-1.352v-1.373h1.352v1.373zM3.344 16.482h-1.352v-1.373h1.352v1.373zM1.992 16.482h-1.352v-1.373h1.352v1.373zM0.64 16.482h-1.352v-1.373h1.352v1.373z">
            </path>
            <path d="M30.383 15.109h-1.352v-1.374h1.352v1.374z"></path>
            <path
                d="M29.031 15.109h-1.352v-1.374h1.352v1.374zM23.623 15.109h-1.352v-1.374h1.352v1.374zM22.271 15.109h-1.352v-1.374h1.352v1.374zM14.16 15.109h-1.352v-1.374h1.352v1.374zM12.808 15.109h-1.352v-1.374h1.352v1.374zM7.4 15.109h-1.352v-1.374h1.352v1.374zM6.048 15.109h-1.352v-1.374h1.352v1.374zM31.735 13.735h-1.352v-1.374h1.352v1.374zM30.383 13.735h-1.352v-1.374h1.352v1.374z">
            </path>
            <path d="M29.031 13.735h-1.352v-1.374h1.352v1.374zM22.271 13.735h-1.352v-1.374h1.352v1.374z"></path>
            <path
                d="M20.919 13.735h-1.352v-1.374h1.352v1.374zM15.512 13.735h-1.352v-1.374h1.352v1.374zM14.16 13.735h-1.352v-1.374h1.352v1.374zM7.4 13.735h-1.352v-1.374h1.352v1.374zM6.048 13.735h-1.352v-1.374h1.352v1.374z">
            </path>
            <path
                d="M4.696 13.735h-1.352v-1.374h1.352v1.374zM31.735 12.362h-1.352v-1.373h1.352v1.374zM30.383 12.362h-1.352v-1.373h1.352v1.374zM20.919 12.362h-1.352v-1.373h1.352v1.374zM19.567 12.362h-1.352v-1.373h1.352v1.374zM16.864 12.362h-1.352v-1.373h1.352v1.374zM15.512 12.362h-1.352v-1.373h1.352v1.374z">
            </path>
            <path d="M6.048 12.362h-1.352v-1.373h1.352v1.374z"></path>
            <path
                d="M4.696 12.362h-1.352v-1.373h1.352v1.374zM31.735 10.988h-1.352v-1.374h1.352v1.373zM19.567 10.988h-1.352v-1.374h1.352v1.373zM16.864 10.988h-1.352v-1.374h1.352v1.373zM4.696 10.988h-1.352v-1.374h1.352v1.373zM24.975 8.241h-1.352v-1.374h1.352v1.374zM23.623 8.241h-1.352v-1.374h1.352v1.374zM22.271 8.241h-1.352v-1.374h1.352v1.374zM14.16 8.241h-1.352v-1.374h1.352v1.374zM12.808 8.241h-1.352v-1.374h1.352v1.374zM11.456 8.241h-1.352v-1.374h1.352v1.374zM35.79 6.868h-1.352v-1.373h1.352v1.373zM26.327 6.868h-1.352v-1.373h1.352v1.373zM24.975 6.868h-1.352v-1.373h1.352v1.373zM23.623 6.868h-1.352v-1.373h1.352v1.373zM19.567 6.868h-1.352v-1.373h1.352v1.373zM16.864 6.868h-1.352v-1.373h1.352v1.373zM12.808 6.868h-1.352v-1.373h1.352v1.373zM11.456 6.868h-1.352v-1.373h1.352v1.373z">
            </path>
            <path
                d="M10.104 6.868h-1.352v-1.373h1.352v1.373zM0.64 6.868h-1.352v-1.373h1.352v1.373zM35.79 5.494h-1.352v-1.374h1.352v1.374zM34.438 5.494h-1.352v-1.374h1.352v1.374zM27.679 5.494h-1.352v-1.374h1.352v1.374z">
            </path>
            <path
                d="M26.327 5.494h-1.352v-1.374h1.352v1.374zM24.975 5.494h-1.352v-1.374h1.352v1.374zM20.919 5.494h-1.352v-1.374h1.352v1.374zM19.567 5.494h-1.352v-1.374h1.352v1.374zM16.864 5.494h-1.352v-1.374h1.352v1.374zM15.512 5.494h-1.352v-1.374h1.352v1.374zM11.456 5.494h-1.352v-1.374h1.352v1.374z">
            </path>
            <path
                d="M10.104 5.494h-1.352v-1.374h1.352v1.374zM8.752 5.494h-1.352v-1.374h1.352v1.374zM1.992 5.494h-1.352v-1.374h1.352v1.374zM0.64 5.494h-1.352v-1.374h1.352v1.374zM35.79 4.12h-1.352v-1.373h1.352v1.374zM34.438 4.12h-1.352v-1.373h1.352v1.374z">
            </path>
            <path d="M33.087 4.12h-1.352v-1.373h1.352v1.374zM22.271 4.12h-1.352v-1.373h1.352v1.374z"></path>
            <path
                d="M20.919 4.12h-1.352v-1.373h1.352v1.374zM19.567 4.12h-1.352v-1.373h1.352v1.374zM16.864 4.121h-1.352v-1.374h1.352v1.374zM15.512 4.121h-1.352v-1.374h1.352v1.374zM14.16 4.121h-1.352v-1.374h1.352v1.374zM3.344 4.121h-1.352v-1.374h1.352v1.374zM1.992 4.121h-1.352v-1.374h1.352v1.374zM0.64 4.121h-1.352v-1.374h1.352v1.374zM34.438 2.747h-1.352v-1.373h1.352v1.373z">
            </path>
            <path
                d="M33.087 2.747h-1.352v-1.373h1.352v1.373zM31.735 2.747h-1.352v-1.373h1.352v1.373zM22.271 2.747h-1.352v-1.373h1.352v1.373z">
            </path>
            <path
                d="M20.919 2.747h-1.352v-1.373h1.352v1.373zM15.512 2.747h-1.352v-1.373h1.352v1.373zM14.16 2.747h-1.352v-1.373h1.352v1.373zM4.696 2.747h-1.352v-1.373h1.352v1.373z">
            </path>
            <path
                d="M3.344 2.747h-1.352v-1.373h1.352v1.373zM1.992 2.747h-1.352v-1.373h1.352v1.373zM33.087 1.374h-1.352v-1.374h1.352v1.374zM31.735 1.374h-1.352v-1.374h1.352v1.374zM30.383 1.374h-1.352v-1.374h1.352v1.374zM22.271 1.374h-1.352v-1.374h1.352v1.374zM14.16 1.374h-1.352v-1.374h1.352v1.374zM6.048 1.374h-1.352v-1.374h1.352v1.374z">
            </path>
            <path d="M4.696 1.374h-1.352v-1.374h1.352v1.374z"></path>
            <path d="M3.344 1.374h-1.352v-1.374h1.352v1.374z"></path>
        </symbol>
    </defs>
</svg>